<?xml version="1.0" encoding="utf-8"?>
<!-- Generator: Adobe Illustrator 27.5.0, SVG Export Plug-In . SVG Version: 6.00 Build 0)  -->
<svg version="1.1" xmlns="http://www.w3.org/2000/svg" xmlns:xlink="http://www.w3.org/1999/xlink" x="0px" y="0px"
	 viewBox="0 0 3710 3710" style="enable-background:new 0 0 3710 3710;" xml:space="preserve">
<g id="Background">
	<g>
		<g>
			<rect style="fill:#FFFFFF;" width="3710" height="3710"/>
		</g>
	</g>
</g>
<g id="Illustration">
	<g>
		<linearGradient id="SVGID_1_" gradientUnits="userSpaceOnUse" x1="3437.8145" y1="3264.7959" x2="1400.0668" y2="1481.7682">
			<stop  offset="0" style="stop-color:#B37CFF"/>
			<stop  offset="1" style="stop-color:#F895E7"/>
		</linearGradient>
		<path style="opacity:0.3;fill:url(#SVGID_1_);" d="M3091.503,2338.79c-263.359,620.104-964.887,967.491-1573.253,873.785
			c-98.993-15.248-370.387-60.669-610.668-274.95C445.025,2525.118,346.104,1708.3,719.235,1132.669
			c271.574-418.958,758.398-656.452,1220.976-644.572c99.639,2.559,481.499,18.329,817.087,295.048
			c49.291,40.645,158.008,137.227,255.988,290.45C3243.362,1433.389,3263.138,1934.66,3091.503,2338.79z"/>
		<g>
			<g>
				<g>
					
						<linearGradient id="SVGID_00000127764599644708183850000017543480843212934838_" gradientUnits="userSpaceOnUse" x1="1644.8508" y1="2810.8247" x2="3848.8057" y2="-350.5043">
						<stop  offset="0" style="stop-color:#2B3582"/>
						<stop  offset="1" style="stop-color:#150E42"/>
					</linearGradient>
					<path style="fill:url(#SVGID_00000127764599644708183850000017543480843212934838_);" d="M1635.383,489.733
						c-67.985,4.411-121.257,60.098-122.945,128.205c-10.325,416.504-43.813,1853.186-27.827,2362.302
						c1.694,53.936,44.931,97.227,98.865,98.992c266.759,8.73,1034.149,30.855,1470.477,12.55
						c90.88-3.813,163.15-77.427,165.037-168.367c9.067-437.175,29.072-1666.782-18.477-2230.066
						c-5.697-67.49-58.668-121.235-126.062-127.977C2783.939,536.31,2012.343,465.27,1635.383,489.733z"/>
					
						<linearGradient id="SVGID_00000158744950567607991780000009990926945085486997_" gradientUnits="userSpaceOnUse" x1="2767.7322" y1="599.0168" x2="1561.0671" y2="3773.365">
						<stop  offset="0" style="stop-color:#53D8FF"/>
						<stop  offset="1" style="stop-color:#3840F7"/>
					</linearGradient>
					<path style="fill:url(#SVGID_00000158744950567607991780000009990926945085486997_);" d="M1729.317,637.728
						c-59.021,3.22-105.965,50.572-108.487,109.627c-14.57,341.114-60.525,1475.921-45.939,1895.549
						c2.132,61.334,50.473,110.928,111.74,114.513c252.254,14.762,899.26,47.311,1269.254,17.683
						c66.624-5.334,118.904-59.215,122.5-125.955c18.75-348.009,72.585-1404.672,58.604-1819.598
						c-2.231-66.192-53.505-120.25-119.469-126.173C2744.621,678.873,2043.726,620.573,1729.317,637.728z"/>
					<path style="opacity:0.5;fill:#3F67F9;" d="M2171.704,562.51L2171.704,562.51c0,12.78,9.96,23.32,22.722,23.988
						c63.007,3.3,240.498,12.636,319.821,17.239c15.64,0.907,27.916-13.151,24.949-28.534l-0.507-2.625
						c-2.024-10.497-10.729-18.397-21.375-19.372c-53.618-4.913-215.409-18.536-322.606-14.71
						C2181.832,538.956,2171.704,549.625,2171.704,562.51z"/>
				</g>
			</g>
			<g>
				<defs>
					<path id="SVGID_00000054225453258349692960000016782201632066923913_" d="M1729.317,637.728
						c-59.021,3.22-105.965,50.572-108.487,109.627c-14.57,341.114-60.525,1475.921-45.939,1895.549
						c2.132,61.334,50.473,110.928,111.74,114.513c252.254,14.762,899.26,47.311,1269.254,17.683
						c66.624-5.334,118.904-59.215,122.5-125.955c18.75-348.009,72.585-1404.672,58.604-1819.598
						c-2.231-66.192-53.505-120.25-119.469-126.173C2744.621,678.873,2043.726,620.573,1729.317,637.728z"/>
				</defs>
				<clipPath id="SVGID_00000137851717525161819490000003142357136080611973_">
					<use xlink:href="#SVGID_00000054225453258349692960000016782201632066923913_"  style="overflow:visible;"/>
				</clipPath>
				<g style="clip-path:url(#SVGID_00000137851717525161819490000003142357136080611973_);">
					
						<linearGradient id="SVGID_00000117648073528712005490000012134844598461961103_" gradientUnits="userSpaceOnUse" x1="2054.1047" y1="1104.7915" x2="2369.115" y2="1454.0422">
						<stop  offset="0" style="stop-color:#2B3582"/>
						<stop  offset="1" style="stop-color:#150E42"/>
					</linearGradient>
					<path style="fill:url(#SVGID_00000117648073528712005490000012134844598461961103_);" d="M2100.024,1306.092
						c0,0-28.369-106.803,122.631-124.603c151-17.801,193.004,242.084,73.291,277.201
						C2176.232,1493.806,2100.024,1306.092,2100.024,1306.092z"/>
					
						<linearGradient id="SVGID_00000101808295535426504820000008735065740475000981_" gradientUnits="userSpaceOnUse" x1="2462.2021" y1="3761.844" x2="2513.9468" y2="967.6036">
						<stop  offset="0" style="stop-color:#CB236D"/>
						<stop  offset="1" style="stop-color:#4C246D"/>
					</linearGradient>
					<path style="fill:url(#SVGID_00000101808295535426504820000008735065740475000981_);" d="M3128.951,1870.983
						c-46.778-50.604-112.412-79.585-181.318-80.079l-903.426-6.4c-73.499-0.521-143.481,31.418-191.253,87.275
						c-47.769,55.857-68.46,129.434-56.542,201.96l180.896,1100.373h1137.318l79.931-1116.606
						C3199.475,1988.773,3175.727,1921.582,3128.951,1870.983z"/>
					
						<linearGradient id="SVGID_00000034072739878175062000000010547830545596184978_" gradientUnits="userSpaceOnUse" x1="1908.0577" y1="2457.2957" x2="2291.8508" y2="2457.2957">
						<stop  offset="0" style="stop-color:#F9B776"/>
						<stop  offset="1" style="stop-color:#F47960"/>
					</linearGradient>
					<polygon style="fill:url(#SVGID_00000034072739878175062000000010547830545596184978_);" points="1908.058,2406.483 
						2220.109,2393.213 2291.851,2521.378 1908.058,2492.25 					"/>
					<g>
						
							<linearGradient id="SVGID_00000168079745930823509600000003241438722353364613_" gradientUnits="userSpaceOnUse" x1="2086.2014" y1="4548.5879" x2="2120.8032" y2="2680.0762">
							<stop  offset="0" style="stop-color:#2B3582"/>
							<stop  offset="1" style="stop-color:#150E42"/>
						</linearGradient>
						<polygon style="fill:url(#SVGID_00000168079745930823509600000003241438722353364613_);" points="2168.052,3580.181 
							2168.052,3226.111 2046.774,3226.111 2068.707,3580.181 						"/>
						
							<linearGradient id="SVGID_00000054226348333496774360000003514124956121533066_" gradientUnits="userSpaceOnUse" x1="240.8294" y1="4548.4404" x2="275.4252" y2="2680.2476" gradientTransform="matrix(-1 0 0 1 3204 0)">
							<stop  offset="0" style="stop-color:#2B3582"/>
							<stop  offset="1" style="stop-color:#150E42"/>
						</linearGradient>
						<polygon style="fill:url(#SVGID_00000054226348333496774360000003514124956121533066_);" points="2976.356,3580.181 
							2998.29,3226.111 2885.634,3226.111 2885.634,3580.181 						"/>
					</g>
					
						<linearGradient id="SVGID_00000051367523295416859980000001203352385901136316_" gradientUnits="userSpaceOnUse" x1="-525.9189" y1="3165.8977" x2="1052.8478" y2="3159.4006">
						<stop  offset="0" style="stop-color:#C32B78"/>
						<stop  offset="1" style="stop-color:#593092"/>
					</linearGradient>
					<path style="fill:url(#SVGID_00000051367523295416859980000001203352385901136316_);" d="M3228.826,3158.435
						c0,71.838-58.237,130.075-130.075,130.075H1965.335c-71.839,0-130.075-58.237-130.075-130.075v-10.243
						c0-71.838,58.237-130.075,130.075-130.075H3098.75c71.839,0,130.075,58.237,130.075,130.075V3158.435z"/>
					<g>
						
							<linearGradient id="SVGID_00000122000335664667468300000004471898996637982140_" gradientUnits="userSpaceOnUse" x1="7404.9434" y1="2991.6565" x2="6505.5981" y2="3504.9897" gradientTransform="matrix(-0.9155 0.4023 0.4023 0.9155 6550.6606 -2678.031)">
							<stop  offset="0" style="stop-color:#F9B776"/>
							<stop  offset="1" style="stop-color:#F47960"/>
						</linearGradient>
						<path style="fill:url(#SVGID_00000122000335664667468300000004471898996637982140_);" d="M1594.382,3580.181
							c100.563-208.847,239.565-536.063,145.833-686.35l363.901-61.551l-339.047-199.21l-157.212,47.85
							c-20.053,6.104-35.563,21.935-41.211,42.117c-19.846,70.959-71.078,510.006-109.806,857.144H1594.382z"/>
					</g>
					
						<linearGradient id="SVGID_00000124122867913085422230000013820678192687398051_" gradientUnits="userSpaceOnUse" x1="7479.9209" y1="2927.3674" x2="10633.5508" y2="953.1464" gradientTransform="matrix(-0.9615 0.2748 0.2748 0.9615 7563.9141 -1920.5399)">
						<stop  offset="0" style="stop-color:#F9B776"/>
						<stop  offset="1" style="stop-color:#F47960"/>
					</linearGradient>
					<path style="fill:url(#SVGID_00000124122867913085422230000013820678192687398051_);" d="M1810.625,3580.181
						c83.486-214.824,180.298-519.397,82.854-654.25l369.204,16.709l-362.146-278.556l-153.594,58.434
						c-19.59,7.453-33.987,24.303-38.249,44.822c-20.794,100.189-74.039,426.406-60.719,812.841H1810.625z"/>
					
						<linearGradient id="SVGID_00000164504869990946355610000001590636853248329614_" gradientUnits="userSpaceOnUse" x1="2861.3716" y1="1915.9121" x2="2113.4219" y2="3082.7141">
						<stop  offset="0" style="stop-color:#FDF53F"/>
						<stop  offset="1" style="stop-color:#D93C65"/>
					</linearGradient>
					<path style="fill:url(#SVGID_00000164504869990946355610000001590636853248329614_);" d="M2866.818,2938.664
						c-12.154-100.498-160.277-320.811-160.277-320.811s-574.526-18.689-641.621,7.349c-52.077,20.21-264.573,8.789-357.093,2.664
						c-3.52-0.232-6.696,2.1-7.528,5.523c-0.832,3.428,0.921,6.96,4.154,8.364c225.978,98.297,247.7,154.315,277.584,344.852
						c0,0,227.431,138.269,688.787,100.127C2825.86,3073.917,2878.973,3039.161,2866.818,2938.664z"/>
					
						<linearGradient id="SVGID_00000120533786151338229790000014412548410853191319_" gradientUnits="userSpaceOnUse" x1="7296.9502" y1="1856.6193" x2="5124.1313" y2="3952.5276" gradientTransform="matrix(-1 0 0 1 9285.3369 0)">
						<stop  offset="0" style="stop-color:#FDF53F"/>
						<stop  offset="1" style="stop-color:#D93C65"/>
					</linearGradient>
					<path style="fill:url(#SVGID_00000120533786151338229790000014412548410853191319_);" d="M2305.958,2585.215
						c0,0-172.491-164.246-257.398-273.032c-45.896-58.806-60.31-136.22-39.084-207.732
						c38.764-130.599,107.655-265.865,113.938-286.918c9.63-32.27,203.037-30.926,203.037-30.926s380.585,247.004,530.118,665.41
						l-167.935,52.282c0,0-99.372-166.713-197.556-272.706c0,0,169.894,224.435,175.877,316.314L2305.958,2585.215z"/>
					
						<linearGradient id="SVGID_00000069365780861494803590000004718654760707997371_" gradientUnits="userSpaceOnUse" x1="1371.6445" y1="2045.7223" x2="1309.0206" y2="1643.8871" gradientTransform="matrix(1 0 0 1 888.874 0)">
						<stop  offset="0" style="stop-color:#F9B776"/>
						<stop  offset="1" style="stop-color:#F47960"/>
					</linearGradient>
					<path style="fill:url(#SVGID_00000069365780861494803590000004718654760707997371_);" d="M2100.024,1637.187
						c2.02,6.708,52.499,174.057,56.448,177.529c3.949,3.474,110.706,9.215,160.956-25.128l-102.563-226.886L2100.024,1637.187z"/>
					
						<linearGradient id="SVGID_00000163045782269029217310000017830029899632181398_" gradientUnits="userSpaceOnUse" x1="2485.2188" y1="-335.4766" x2="2889.8901" y2="-60.6057" gradientTransform="matrix(0.723 -0.6909 0.6909 0.723 368.0431 3572.7656)">
						<stop  offset="0" style="stop-color:#F9B776"/>
						<stop  offset="1" style="stop-color:#F47960"/>
					</linearGradient>
					<path style="fill:url(#SVGID_00000163045782269029217310000017830029899632181398_);" d="M1961.19,1449.208
						c0,0-35.94,83.014,6.286,209.224c42.226,126.211,111.232,137.176,154.933,105.976
						c43.701-31.201,100.367-86.955,107.413-201.282C2236.867,1448.797,2010.697,1344.21,1961.19,1449.208z"/>
					
						<linearGradient id="SVGID_00000060032779491292171990000004735696419730531731_" gradientUnits="userSpaceOnUse" x1="2682.3413" y1="822.2319" x2="1024.0613" y2="2660.7612">
						<stop  offset="0" style="stop-color:#2B3582"/>
						<stop  offset="1" style="stop-color:#150E42"/>
					</linearGradient>
					<path style="fill:url(#SVGID_00000060032779491292171990000004735696419730531731_);" d="M2154.385,1309.036
						c-41.139-22.642-84.081-28.919-123.873-23.093c-30.155,4.257-58.518,15.47-83.068,31.726
						c-24.996,16.365-44.924,37.884-59.72,62.66c-4.832,10.017-8.244,20.623-10.433,31.745
						c-8.223,41.796,2.899,85.066,30.21,117.759c20.435,24.459,41.047,44.693,41.047,44.693l3.56-25.701
						c0-32.172,25.317-66.941,56.703-76.916c31.387-9.974,64.537-2.128,88.413,20.405c30.94,29.251,47.851,68.487,47.851,68.487
						l10.251-3.029c0,0-0.815-49.993,30.907-38.335c31.611,11.772,44.541,77.794,44.541,77.794s67.222,30.825,73.499-59.072
						C2310.551,1448.366,2270.963,1372.929,2154.385,1309.036z"/>
					
						<linearGradient id="SVGID_00000047041478551079125470000004406196522715119750_" gradientUnits="userSpaceOnUse" x1="2509.47" y1="-371.183" x2="2914.1458" y2="-96.3092" gradientTransform="matrix(0.723 -0.6909 0.6909 0.723 368.0431 3572.7656)">
						<stop  offset="0" style="stop-color:#F9B776"/>
						<stop  offset="1" style="stop-color:#F47960"/>
					</linearGradient>
					<path style="fill:url(#SVGID_00000047041478551079125470000004406196522715119750_);" d="M2170.766,1557.774
						c0,0-39.715-87.576,15.915-90.744c55.63-3.166,32.997,84.423,21.91,116.381L2170.766,1557.774z"/>
					
						<linearGradient id="SVGID_00000127012248204144509400000003649933674314908331_" gradientUnits="userSpaceOnUse" x1="1660.7021" y1="2558.0498" x2="2578.8613" y2="2558.0498" gradientTransform="matrix(1 0 0 1 888.874 0)">
						<stop  offset="0" style="stop-color:#F9B776"/>
						<stop  offset="1" style="stop-color:#F47960"/>
					</linearGradient>
					<path style="fill:url(#SVGID_00000127012248204144509400000003649933674314908331_);" d="M1977.309,2650.029l129.609-141.016
						l149.684,40.306c0,0,174.509,27.038,274.387,0c99.878-27.037,99.878-27.037,99.878-27.037l225.702-70.267l35.449,100.181
						c8.999,25.434-0.045,53.673-22.038,69.3c-19.526,13.876-42.415,29.125-57.005,35.507
						c-29.722,13.004-684.698,4.112-684.698,4.112L1977.309,2650.029z"/>
					<g>
						
							<linearGradient id="SVGID_00000134209189029517801700000000439712701431812514_" gradientUnits="userSpaceOnUse" x1="1650.8646" y1="2393.2131" x2="2145.0906" y2="2393.2131">
							<stop  offset="0" style="stop-color:#2B3582"/>
							<stop  offset="1" style="stop-color:#150E42"/>
						</linearGradient>
						<path style="fill:url(#SVGID_00000134209189029517801700000000439712701431812514_);" d="M2143.998,2650.888l-248.47-550.118
							c-2.544-5.633-8.863-8.51-14.78-6.728l-221.113,66.53c-3.257,0.98-5.965,3.266-7.481,6.31
							c-1.515,3.048-1.705,6.585-0.522,9.775l188.353,508.214c1.93,5.205,7.099,8.476,12.63,7.993l281.227-24.629
							c3.98-0.347,7.543-2.603,9.56-6.05C2145.42,2658.739,2145.642,2654.529,2143.998,2650.888z"/>
						
							<linearGradient id="SVGID_00000158738367172120170750000004575795756065220235_" gradientUnits="userSpaceOnUse" x1="1687.5281" y1="2136.4973" x2="1830.5272" y2="2136.4973">
							<stop  offset="0" style="stop-color:#B37CFF"/>
							<stop  offset="1" style="stop-color:#F895E7"/>
						</linearGradient>
						<path style="fill:url(#SVGID_00000158738367172120170750000004575795756065220235_);" d="M1829.608,2120.007l-6.869-15.583
							c-2.271-5.153-8.14-7.666-13.438-5.76l-32.762,11.786c-1.415,0.512-2.996,0.028-3.89-1.181l-5.815-7.875
							c-4.493-6.082-12.588-8.263-19.529-5.262l-28.795,13.213c-5.952,2.574-8.046,8.438-8.046,14.919v9.468
							c0,1.493-2.728,2.812-4.154,3.253l-10.674,3.038c-2.887,0.896-5.699,2.968-6.977,5.708c-1.278,2.741-1.559,5.889-0.391,8.676
							l7.109,17.214c2.23,5.315,8.211,7.918,13.606,5.889l114.621-43.147c2.758-1.033,4.952-3.161,6.094-5.878
							C1830.838,2125.768,1830.798,2122.701,1829.608,2120.007z"/>
					</g>
					
						<linearGradient id="SVGID_00000160190249022013893660000003976385612989176982_" gradientUnits="userSpaceOnUse" x1="1695.7153" y1="2415.4905" x2="1781.6544" y2="2415.4905">
						<stop  offset="0" style="stop-color:#F9B776"/>
						<stop  offset="1" style="stop-color:#F47960"/>
					</linearGradient>
					<path style="fill:url(#SVGID_00000160190249022013893660000003976385612989176982_);" d="M1696.024,2373.512
						c0,0,47.333-64.324,49.154-44.906c1.821,19.419,0,61.29,0,61.29s9.103,7.889,22.453,37.017
						c13.35,29.128,20.537,74.811,6.021,78.974C1759.135,2510.05,1690.563,2420.239,1696.024,2373.512z"/>
					
						<linearGradient id="SVGID_00000139295346543878048190000007934441717704807304_" gradientUnits="userSpaceOnUse" x1="2128.6968" y1="2446.8372" x2="2190.176" y2="2446.8372">
						<stop  offset="0" style="stop-color:#2B3582"/>
						<stop  offset="1" style="stop-color:#150E42"/>
					</linearGradient>
					<path style="fill:url(#SVGID_00000139295346543878048190000007934441717704807304_);" d="M2188.631,2372.175
						c-1.41-1.835-3.594-2.911-5.907-2.911c-5.06,0-9.527,3.304-11.01,8.14l-43.016,140.33l22.507,6.675l38.723-145.778
						C2190.52,2376.395,2190.041,2374.006,2188.631,2372.175z"/>
					<path style="fill:#FFFFFF;" d="M1922.981,1522.931c-0.697,0-1.394-0.303-1.873-0.882c-0.759-0.92-74.939-92.855,0.232-161.92
						c0.986-0.891,2.527-0.825,3.428,0.152c0.905,0.986,0.844,2.522-0.147,3.432c-71.82,65.984-0.498,154.363,0.232,155.245
						c0.853,1.034,0.706,2.57-0.332,3.423C1924.071,1522.75,1923.526,1522.931,1922.981,1522.931z"/>
				</g>
			</g>
		</g>
		<g>
			<g>
				<g>
					<g>
						
							<linearGradient id="SVGID_00000078003521062938777530000005478723587523623041_" gradientUnits="userSpaceOnUse" x1="2984.9878" y1="940.6637" x2="3427.4932" y2="1761.38" gradientTransform="matrix(-1 0 0 1 5859.7881 0)">
							<stop  offset="0" style="stop-color:#FF9085"/>
							<stop  offset="1" style="stop-color:#FB6FBB"/>
						</linearGradient>
						<path style="fill:url(#SVGID_00000078003521062938777530000005478723587523623041_);" d="M2430.95,1165.872
							c0,145.587,141.737,263.958,319.202,264.398c180.432,0.447,328.93-120.804,328.93-270.827s-148.498-268.328-328.93-264.301
							C2572.686,899.101,2430.95,1020.285,2430.95,1165.872z"/>
						
							<linearGradient id="SVGID_00000012469809280261090900000004828050079913586102_" gradientUnits="userSpaceOnUse" x1="2984.9878" y1="940.6637" x2="3427.4932" y2="1761.38" gradientTransform="matrix(-1 0 0 1 5859.7881 0)">
							<stop  offset="0" style="stop-color:#B37CFF"/>
							<stop  offset="1" style="stop-color:#F895E7"/>
						</linearGradient>
						<path style="fill:url(#SVGID_00000012469809280261090900000004828050079913586102_);" d="M2430.95,1165.872
							c0,145.587,141.737,263.958,319.202,264.398c180.432,0.447,328.93-120.804,328.93-270.827s-148.498-268.328-328.93-264.301
							C2572.686,899.101,2430.95,1020.285,2430.95,1165.872z"/>
						
							<linearGradient id="SVGID_00000140708628261503535140000007554894813841941644_" gradientUnits="userSpaceOnUse" x1="3763.1372" y1="1483.0273" x2="4279.0488" y2="2439.8906" gradientTransform="matrix(-0.9879 -0.1549 -0.1549 0.9879 6860.895 -10.3045)">
							<stop  offset="0" style="stop-color:#B37CFF"/>
							<stop  offset="1" style="stop-color:#F895E7"/>
						</linearGradient>
						<path style="fill:url(#SVGID_00000140708628261503535140000007554894813841941644_);" d="M2613.435,1389.23
							c-28.36,14.195-57.82,28.339-88.369,42.318c-25.336,11.593-50.261,22.541-74.72,32.883
							c0.888-25.005,11.782-48.411,24.986-87.731c14.113-42.028,26.665-85.135,41.919-106.091L2613.435,1389.23z"/>
					</g>
				</g>
			</g>
			<g style="opacity:0.9;">
				<path style="fill:#FFFFFF;" d="M2994.875,1077.94c0,10.329-8.159,18.36-18.223,18.36h-437.348
					c-10.064,0-18.223-8.031-18.223-18.36l0,0c0-10.329,8.158-18.359,18.223-18.359h437.348
					C2986.716,1059.58,2994.875,1067.611,2994.875,1077.94L2994.875,1077.94z"/>
				<path style="fill:#FFFFFF;" d="M2994.875,1166.4c0,10.329-8.159,16.69-18.223,16.69h-437.348
					c-10.064,0-18.223-6.361-18.223-16.69l0,0c0-10.329,8.158-16.691,18.223-16.691h437.348
					C2986.716,1149.709,2994.875,1156.071,2994.875,1166.4L2994.875,1166.4z"/>
				<path style="fill:#FFFFFF;" d="M2900.115,1256.528c0,10.329-8.158,20.029-18.223,20.029h-342.589
					c-10.064,0-18.223-9.7-18.223-20.029l0,0c0-10.329,8.158-20.029,18.223-20.029h342.589
					C2891.957,1236.5,2900.115,1246.199,2900.115,1256.528L2900.115,1256.528z"/>
			</g>
		</g>
		<g>
			
				<linearGradient id="SVGID_00000127751248687698119510000013860706901246170035_" gradientUnits="userSpaceOnUse" x1="1358.5339" y1="732.9803" x2="815.1064" y2="1715.1398">
				<stop  offset="0" style="stop-color:#B37CFF"/>
				<stop  offset="1" style="stop-color:#F895E7"/>
			</linearGradient>
			<path style="fill:url(#SVGID_00000127751248687698119510000013860706901246170035_);" d="M846.841,953.783
				c-242.399,126.029-525.652,450.01-222.204,389.373c303.448-60.637,116.84,178.725,305.875,172.837
				s481.646-46.206,673.108-244.602s5.354-245.814-72.25-238.133C1275.865,1058.545,1527.757,599.76,846.841,953.783z"/>
			<path style="fill:#FFFFFF;" d="M1114.705,1356.828c-25.219,0-52.49-8.86-78.454-26.181
				c-16.271-10.854-30.322-23.905-41.561-38.115c-24.12-4.523-45.706-13.353-56.259-18.133c-2.852-1.288-5.647-2.615-8.388-3.973
				c-9.159-3.605-17.606-8.457-25.25-14.246c-27.747-17.63-50.469-38.748-74.148-60.755c-8.409-7.813-17.102-15.894-26.131-23.908
				l-1.406-1.252c-18.344-16.314-21.649-19.244-40.483-4.974c-16.95,12.844-38.838,43.797-35.984,65.029
				c0.399,2.966-1.682,5.692-4.649,6.093c-2.96,0.37-5.694-1.684-6.092-4.65c-3.508-26.098,21.529-60.976,40.178-75.108
				c25.933-19.656,35.981-10.713,54.232,5.513l1.4,1.244c9.12,8.098,17.861,16.223,26.312,24.077
				c11.48,10.669,22.728,21.121,34.426,31.041c-7.278-13.215-11.904-27.414-13.422-41.217
				c-4.227-38.425,13.931-69.394,49.041-84.972c9.749-26.794,28.618-51.294,57.596-62.231c17.627-6.657,34.521-6.24,50.21,1.233
				c1.974,0.94,3.891,1.971,5.75,3.088c20.755-11.49,43.186-17.262,64.704-16.04c32.039,1.769,59.931,18.105,80.661,47.239
				c4.61,6.478,9.08,13.853,13.32,21.943c3.41-2.173,6.931-4.155,10.557-5.93c38.145-18.686,76.619-5.029,103.295,36.498
				c25.065-3.157,49.385,7.708,66.867,22.307c30.798,25.719,51.824,72.554,32.423,112.314
				c-11.873,24.328-33.693,38.461-63.106,40.864c-27.119,2.225-58.435-5.416-88.191-17.956
				c-10.984,9.726-24.681,17.497-40.259,23.264c-9.207,20.79-23.156,36.415-41.667,46.622
				C1146.528,1353.104,1131.047,1356.825,1114.705,1356.828z M1010.798,1294.793c9.057,9.848,19.635,18.946,31.467,26.839
				c39.359,26.253,81.503,31.646,112.73,14.431c13.576-7.486,24.417-18.36,32.433-32.492c-45.36,12.452-102.893,9.919-155.828-8.523
				C1024.743,1295.57,1017.743,1295.423,1010.798,1294.793z M1053.973,1290.527c41.795,11.169,85.624,12.515,121.999,4.498
				c-33.282-10.262-50.428-58.04-53.733-82.794c-1.649-12.361-1.232-24.967,0.984-37.3c-7.159-21.533-1.8-37.339,3.109-46.042
				c7.35-13.03,20.292-22.495,35.726-26.911c0.984-0.945,1.986-1.877,2.999-2.79c-27.429-18.039-61.923-19.449-97.663-4.017
				c1.565,3.917,2.803,7.398,3.742,10.215c6.036,18.147,8.164,37.797,6.682,57.072c0.435,0.628,0.868,1.261,1.291,1.888
				c25.922,38.533,26.983,77.436,2.908,106.735C1074.215,1280.58,1064.575,1286.773,1053.973,1290.527z M1132.101,1193.739
				c-0.158,5.703,0.126,11.407,0.88,17.06c3.529,26.435,23.617,75.36,56.226,75.36c0.236,0,0.47-0.003,0.708-0.008
				c1.906-0.039,3.742-0.152,5.506-0.334c1.652-4.708,3.074-9.676,4.264-14.896c1.132-4.962,2.028-10.082,2.704-15.335
				c-29.153-17.245-53.39-37.513-65.521-54.612C1135.125,1198.516,1133.538,1196.103,1132.101,1193.739z M1003.701,1271.532
				c3.309,1.67,6.699,3.279,10.168,4.833c6.367,2.85,12.862,5.438,19.459,7.771c15.621-1.656,30.014-7.393,40.315-19.93
				c24.76-30.134,14.068-63.5,1.95-84.948c-4.093,21.658-12.814,42.108-25.705,58.516
				C1037.338,1253.747,1021.588,1265.151,1003.701,1271.532z M1250.523,1267.283c27.146,10.951,55.138,17.486,78.939,15.54
				c25.751-2.104,44.004-13.817,54.25-34.817c16.957-34.748-2.071-76.228-29.63-99.241c-14.269-11.915-33.63-21.061-53.775-20.176
				c15.211,27.978,37.614,84.273,12.782,111.54c-8.174,8.974-19.555,13.328-32.875,12.587c-5.786-0.321-11.676-1.626-17.317-3.729
				C1259.365,1256.036,1255.073,1262.102,1250.523,1267.283z M1000.722,1282.709c0.556,0.094,1.121,0.182,1.68,0.271
				c-0.782-0.379-1.559-0.76-2.333-1.145C1000.286,1282.126,1000.503,1282.419,1000.722,1282.709z M1212.535,1261.353
				c-0.629,4.064-1.388,8.059-2.282,11.979c-0.752,3.298-1.591,6.508-2.516,9.624c7.585-2.989,13.173-8.078,16.859-15.33
				C1220.513,1265.607,1216.492,1263.515,1212.535,1261.353z M976.9,1277.172c2.747,0.807,5.576,1.584,8.465,2.314
				c-0.643-1.004-1.273-2.01-1.888-3.019C981.307,1276.768,979.113,1277.003,976.9,1277.172z M934.639,1260.606
				c7.789,2.983,16.137,4.957,24.96,5.687c4.921,0.404,9.619,0.484,14.099,0.263c-48.74-32.832-75.128-79.847-73.557-133.212
				c0.254-8.664,1.449-17.699,3.62-26.703c-25.107,14.531-37.318,38.984-33.963,69.485c2.823,25.661,17.485,52.842,40.407,70.638
				C917.924,1251.69,926.023,1256.324,934.639,1260.606z M988.174,1262.937c0.741,0.451,1.487,0.899,2.239,1.341
				c24.319-5.612,40.681-20.126,50.953-33.197c14.146-18.009,22.829-41.322,25.344-65.543
				c-11.861-16.275-26.984-30.593-43.419-41.991c-26.084,23.341-44.044,53.998-47.313,83.734
				C974.012,1225.145,978.513,1244.447,988.174,1262.937z M1238.24,1262.005c0.57,0.26,1.138,0.514,1.709,0.771
				c5.395-5.623,9.76-11.777,13.087-18.42c-4.581-2.632-8.805-5.792-12.439-9.35
				C1241.106,1244.743,1240.42,1253.885,1238.24,1262.005z M1213.979,1249.686c4.661,2.615,9.431,5.142,14.279,7.558
				c6.28-27.444-6.241-69.021-23.023-102.942C1213.097,1185.481,1216.861,1219.007,1213.979,1249.686z M916.912,1100.398
				c-3.67,11.222-5.627,22.675-5.94,33.266c-1.362,46.324,20.219,87.624,60.455,117.943c-5.571-15.313-7.838-30.823-6.223-45.511
				c3.457-31.436,21.89-63.735,48.751-88.63c-14.055-8.565-28.774-14.979-43.028-18.686c-13.204,21.868-22.471,49.315-9.38,69.729
				c1.616,2.519,0.883,5.872-1.637,7.486c-2.52,1.617-5.871,0.885-7.487-1.637c-14.703-22.93-7.494-52.4,7.18-77.962
				c-12.967-2.073-25.27-1.656-36.005,1.684C921.303,1098.795,919.073,1099.569,916.912,1100.398z M1134.4,1173.906
				c2.526,6.768,6.301,13.74,11.307,20.798c10.863,15.313,32.156,33.206,57.837,48.878c2.754-42.229-7.177-90.698-22.83-129.195
				c-1.164-1.468-2.321-2.861-3.46-4.169c-3.337,0.254-6.592,0.763-9.734,1.515
				C1150.935,1128.412,1139.159,1150.537,1134.4,1173.906z M1267.116,1238.982c4.502,1.639,9.167,2.662,13.699,2.914
				c6.929,0.384,16.8-0.874,24.262-9.065c20.168-22.147-0.904-75.844-16.259-102.602c-7.474,1.83-14.933,5.217-22.165,10.525
				c-3.398,2.494-6.631,5.231-9.641,8.164c1.749,3.456,3.349,7.066,4.791,10.818
				C1274.72,1193.347,1273.943,1219.301,1267.116,1238.982z M1236.36,1206.846c1.411,5.247,3.837,10.409,7.43,15.36
				c3.349,4.617,8.039,8.736,13.401,12.004c6.52-20.107,4.73-43.954-5.504-70.588c-0.799-2.076-1.633-4.078-2.496-5.996
				c-10.923,13.986-16.827,30.82-13.367,46.992C1236.006,1205.359,1236.187,1206.105,1236.36,1206.846z M1191.578,1110.713
				c12.673,16.69,25.83,40.546,35.343,65.643c3.33-10.461,9.235-20.43,16.843-29.189
				C1227.581,1120.038,1204.758,1112.642,1191.578,1110.713z M1031.568,1116.599c13.432,9.588,25.712,20.715,35.897,32.548
				c-0.16-13.734-2.324-27.441-6.614-40.335c-0.829-2.496-1.914-5.554-3.266-8.99
				C1048.385,1104.581,1039.659,1110.243,1031.568,1116.599z M1143.526,1124.337c-3.074,2.917-5.694,6.223-7.755,9.878
				c-2.433,4.313-4.002,8.943-4.718,13.828C1134.433,1139.747,1138.622,1131.787,1143.526,1124.337z M1186.061,1099.295
				c0.589,0.028,1.181,0.066,1.771,0.108c25.86,1.902,48.553,16.383,63.644,39.829c2.781-2.56,5.713-4.976,8.764-7.215
				c7.381-5.419,14.945-9.14,22.523-11.443c-23.275-33.761-55.481-44.695-87.13-29.202c-3.609,1.769-7.108,3.763-10.482,5.963
				C1185.454,1097.982,1185.759,1098.64,1186.061,1099.295z M977.085,1089.34c15.334,4.509,30.723,11.799,45.111,20.942
				c9.57-7.846,20.027-14.768,31.107-20.444c-6.715-14.423-17.167-31.635-32.058-42.649c-11.714,7.246-22.782,16.518-32.637,27.555
				C984.941,1078.851,980.967,1083.808,977.085,1089.34z M1115.186,1073.886c19.236,0,37.437,4.904,53.329,14.666
				c-3.329-6.054-6.795-11.639-10.356-16.643c-18.752-26.352-43.797-41.118-72.428-42.699c-17.959-1.004-36.632,3.37-54.277,12.258
				c14.611,12.255,24.903,29.36,31.637,43.761C1080.676,1077.654,1098.326,1073.886,1115.186,1073.886z M989.995,1036.279
				c-6.645,0-13.493,1.321-20.505,3.97c-22.251,8.399-37.908,26.504-47.399,46.976c13.548-3.846,28.455-3.771,43.665-0.699
				c4.592-6.826,9.619-13.234,14.768-18.998c9.239-10.348,19.501-19.261,30.379-26.548
				C1004.213,1037.846,997.224,1036.279,989.995,1036.279z"/>
			
				<linearGradient id="SVGID_00000064324622829095225480000008079607359347103133_" gradientUnits="userSpaceOnUse" x1="1702.3198" y1="364.5103" x2="198.666" y2="2567.1572" gradientTransform="matrix(0.9998 0.0184 -0.0184 0.9998 18.018 9.8832)">
				<stop  offset="0" style="stop-color:#B37CFF"/>
				<stop  offset="1" style="stop-color:#F895E7"/>
			</linearGradient>
			<path style="fill:url(#SVGID_00000064324622829095225480000008079607359347103133_);" d="M940.308,1581.306
				c-0.399,21.654-16.333,57.197-52.113,56.537c-35.78-0.66-77.858-37.272-77.459-58.926c0.399-21.654,29.729-38.673,65.509-38.014
				C912.025,1541.563,940.707,1559.652,940.308,1581.306z"/>
			
				<linearGradient id="SVGID_00000056414760984649591630000007628028352688694692_" gradientUnits="userSpaceOnUse" x1="1803.1857" y1="433.3726" x2="299.5294" y2="2636.0229" gradientTransform="matrix(0.9998 0.0184 -0.0184 0.9998 18.018 9.8832)">
				<stop  offset="0" style="stop-color:#B37CFF"/>
				<stop  offset="1" style="stop-color:#F895E7"/>
			</linearGradient>
			<path style="fill:url(#SVGID_00000056414760984649591630000007628028352688694692_);" d="M994.02,1668.578
				c-0.193,10.485-9.416,18.818-20.599,18.612c-11.183-0.206-33.301-11.353-33.108-21.838s14.064-20.968,25.247-20.762
				C976.743,1644.796,994.213,1658.093,994.02,1668.578z"/>
		</g>
		<g>
			<g>
				
					<linearGradient id="SVGID_00000103231605213969869790000006640564594094481539_" gradientUnits="userSpaceOnUse" x1="684.7991" y1="3566.4958" x2="769.786" y2="2835.6072">
					<stop  offset="0" style="stop-color:#FDF53F"/>
					<stop  offset="1" style="stop-color:#D93C65"/>
				</linearGradient>
				<path style="fill:url(#SVGID_00000103231605213969869790000006640564594094481539_);" d="M730.213,2951.982l-49.153,226.449
					c-5.293,24.381,12.888,47.273,36.102,45.464c0.388-0.03,0.779-0.062,1.174-0.095c14.795-1.237,27.265-12.404,30.923-27.876
					l54.495-230.525L730.213,2951.982z"/>
				
					<linearGradient id="SVGID_00000058572842925492142950000016139373836625601668_" gradientUnits="userSpaceOnUse" x1="952.5918" y1="3600.7046" x2="1037.6514" y2="2869.1912">
					<stop  offset="0" style="stop-color:#FDF53F"/>
					<stop  offset="1" style="stop-color:#D93C65"/>
				</linearGradient>
				<path style="fill:url(#SVGID_00000058572842925492142950000016139373836625601668_);" d="M961.938,2965.399
					c2.255,3.783,23.241,158.907,32.405,227.273c2.447,18.26,16.993,31.801,34.143,31.801h1.906
					c22.206,0,38.629-22.241,33.604-45.51l-46.116-213.564H961.938z"/>
				
					<linearGradient id="SVGID_00000151509161301577322570000006925237280671352729_" gradientUnits="userSpaceOnUse" x1="1304.1129" y1="3643.9956" x2="1389.0999" y2="2913.1072">
					<stop  offset="0" style="stop-color:#FDF53F"/>
					<stop  offset="1" style="stop-color:#D93C65"/>
				</linearGradient>
				<path style="fill:url(#SVGID_00000151509161301577322570000006925237280671352729_);" d="M1358.538,2951.982l-49.153,226.449
					c-5.292,24.381,12.89,47.273,36.103,45.464c0.388-0.03,0.779-0.062,1.174-0.095c14.795-1.237,27.265-12.404,30.922-27.876
					l54.495-230.525L1358.538,2951.982z"/>
				
					<linearGradient id="SVGID_00000047051438276675917780000014236241959063236233_" gradientUnits="userSpaceOnUse" x1="1571.8982" y1="3678.271" x2="1656.9576" y2="2946.7576">
					<stop  offset="0" style="stop-color:#FDF53F"/>
					<stop  offset="1" style="stop-color:#D93C65"/>
				</linearGradient>
				<path style="fill:url(#SVGID_00000047051438276675917780000014236241959063236233_);" d="M1590.264,2965.399
					c2.255,3.783,23.24,158.907,32.404,227.273c2.449,18.26,16.994,31.801,34.144,31.801h1.906c22.206,0,38.628-22.241,33.603-45.51
					l-46.115-213.564H1590.264z"/>
				
					<linearGradient id="SVGID_00000116924333178948428760000011109099366020040094_" gradientUnits="userSpaceOnUse" x1="1468.6423" y1="2664.8591" x2="1199.8724" y2="3149.6992">
					<stop  offset="0" style="stop-color:#CB236D"/>
					<stop  offset="1" style="stop-color:#4C246D"/>
				</linearGradient>
				<path style="fill:url(#SVGID_00000116924333178948428760000011109099366020040094_);" d="M1277.231,2414.686
					c0,0,6.363,132.659,140.985,132.636c134.621-0.022,386.193,110.888,252.574,348.324l-393.56-54.137V2414.686z"/>
				
					<linearGradient id="SVGID_00000133527505373678442240000013444995503041582991_" gradientUnits="userSpaceOnUse" x1="1115.9624" y1="1682.7449" x2="823.461" y2="2972.4133">
					<stop  offset="0" style="stop-color:#CB236D"/>
					<stop  offset="1" style="stop-color:#4C246D"/>
				</linearGradient>
				<path style="fill:url(#SVGID_00000133527505373678442240000013444995503041582991_);" d="M667.305,2774.503
					c0,0-26.544-228.575-81.203-301.12c-54.659-72.546-221.331-405.811,19.827-566.466
					c241.158-160.656,586.209-70.508,645.498,133.806c59.289,204.314,117.093,677.966,146.491,765.019
					c29.398,87.053-547.737,81.208-547.737,81.208L667.305,2774.503z"/>
				
					<linearGradient id="SVGID_00000057118385824476028760000010502410949338273425_" gradientUnits="userSpaceOnUse" x1="1610.3888" y1="2686.7947" x2="1164.9872" y2="2999.241">
					<stop  offset="0" style="stop-color:#CB236D"/>
					<stop  offset="1" style="stop-color:#4C246D"/>
				</linearGradient>
				<path style="fill:url(#SVGID_00000057118385824476028760000010502410949338273425_);" d="M994.741,2813.339
					c4.145-4.806,198.367-78.846,382.639-63.102c184.273,15.745,279.858,45.408,311.719,132.203
					c31.861,86.795-114.13,134.639-411.868,123.507C979.492,2994.815,932.117,2885.967,994.741,2813.339z"/>
				<path style="fill:#FFFFFF;" d="M1227.366,2133.776c-0.654,0-1.237-0.462-1.368-1.127
					c-25.833-132.033-120.429-199.046-195.237-232.012c-81.153-35.762-157.126-40.307-157.884-40.349
					c-0.77-0.042-1.36-0.7-1.316-1.469c0.041-0.77,0.702-1.408,1.469-1.316c0.763,0.041,77.243,4.615,158.856,40.58
					c75.416,33.234,170.786,100.814,196.851,234.029c0.149,0.756-0.345,1.489-1.101,1.638
					C1227.544,2133.768,1227.454,2133.776,1227.366,2133.776z"/>
			</g>
			<g>
				<g>
					
						<linearGradient id="SVGID_00000109713034553968419710000002246686407619599005_" gradientUnits="userSpaceOnUse" x1="222.6692" y1="2173.8562" x2="166.9985" y2="2337.594" gradientTransform="matrix(0.8649 -0.502 0.502 0.8649 191.4425 325.8896)">
						<stop  offset="0" style="stop-color:#F9B776"/>
						<stop  offset="1" style="stop-color:#F47960"/>
					</linearGradient>
					<path style="fill:url(#SVGID_00000109713034553968419710000002246686407619599005_);" d="M1555.497,2068.868l-7.023-11.421
						c-4.042-6.573-10.852-10.952-18.51-11.901l-74.738-9.265c0,0-3.315-8.392,10.416-18.33c13.73-9.937,5.619-26.115,5.619-26.115
						s-18.366,15.064-44.941,38.28c-15.2,13.278-20.969,31.138-23.128,44.004l-11.963,26.225
						c6.677,7.866,16.996,14.099,32.688,12.11l2.719-20.076C1471.577,2093.854,1514.332,2085.083,1555.497,2068.868z"/>
					
						<linearGradient id="SVGID_00000044152893316905357910000001991814208488140675_" gradientUnits="userSpaceOnUse" x1="1357.8308" y1="1995.7935" x2="1108.5514" y2="2773.5461">
						<stop  offset="0" style="stop-color:#FDF53F"/>
						<stop  offset="1" style="stop-color:#D93C65"/>
					</linearGradient>
					<path style="fill:url(#SVGID_00000044152893316905357910000001991814208488140675_);" d="M1391.229,2098.422
						c-8.047,17.641-16.045,35.305-24.087,52.949c-10.342,22.689-18.977,51.678-35.609,70.625
						c-19.609,22.339-51.723,18.423-71.805-1.096c-22.017-21.399-45.536-41.092-68.305-61.704
						c-6.006-5.438-12.173-10.691-18.228-16.072l-1.719,138.559c55.496,25.29,116.607,68.069,180.183,46.333
						c17.509-5.987,35.052-17.126,44.998-33.102c5.958-9.57,11.042-22.83,12.191-34.108c0.003-0.022,15.302-150.087,15.302-150.087
						C1406.043,2113.015,1398.934,2107.5,1391.229,2098.422z"/>
				</g>
				<g>
					
						<linearGradient id="SVGID_00000065032888017672846440000002655848709106370744_" gradientUnits="userSpaceOnUse" x1="2726.4304" y1="3209.0593" x2="2950.6384" y2="3209.0593" gradientTransform="matrix(1 0 0 1 -1375.1613 0)">
						<stop  offset="0" style="stop-color:#2B3582"/>
						<stop  offset="1" style="stop-color:#150E42"/>
					</linearGradient>
					<path style="fill:url(#SVGID_00000065032888017672846440000002655848709106370744_);" d="M1441.427,3209.999
						c-54.965,0-79.285-4.715-90.158-9.016c2.113,9.026,10.153,16.153,20.312,16.153h194.448c6.548,0,10.682-6.268,9.117-11.943
						C1552.981,3206.975,1505.904,3209.999,1441.427,3209.999z"/>
					
						<linearGradient id="SVGID_00000014592693813118700390000012977325680413840292_" gradientUnits="userSpaceOnUse" x1="1559.4033" y1="2980.3879" x2="1409.8278" y2="3309.4536">
						<stop  offset="0" style="stop-color:#CB236D"/>
						<stop  offset="1" style="stop-color:#4C246D"/>
					</linearGradient>
					<path style="fill:url(#SVGID_00000014592693813118700390000012977325680413840292_);" d="M1575.146,3205.193
						c-0.315-1.145-0.779-2.271-1.592-3.31c-14.811-18.911-44.566-48.61-85.041-48.04c-59.294,0.834-79.967,7.267-126.044,0.362
						l-10.87,36.031c-1.107,3.672-1.128,7.34-0.329,10.747c10.873,4.301,35.193,9.016,90.158,9.016
						C1505.904,3209.999,1552.981,3206.975,1575.146,3205.193z"/>
				</g>
				
					<linearGradient id="SVGID_00000006681853384536909370000004037522995099203515_" gradientUnits="userSpaceOnUse" x1="2737.6306" y1="3141.4939" x2="2798.2937" y2="3141.4939" gradientTransform="matrix(1 0 0 1 -1375.1613 0)">
					<stop  offset="0" style="stop-color:#F9B776"/>
					<stop  offset="1" style="stop-color:#F47960"/>
				</linearGradient>
				<path style="fill:url(#SVGID_00000006681853384536909370000004037522995099203515_);" d="M1375.812,3115.378l-13.342,45.379
					c0,0,29.56,13.457,55.558,2.654l5.105-39.317L1375.812,3115.378z"/>
				<g>
					
						<linearGradient id="SVGID_00000098922233370071934070000007577482093883109311_" gradientUnits="userSpaceOnUse" x1="3078.0884" y1="3164.6267" x2="3259.1106" y2="3164.6267" gradientTransform="matrix(1 0 0 1 -1375.1613 0)">
						<stop  offset="0" style="stop-color:#2B3582"/>
						<stop  offset="1" style="stop-color:#150E42"/>
					</linearGradient>
					<path style="fill:url(#SVGID_00000098922233370071934070000007577482093883109311_);" d="M1778.829,3181.421
						c-42.847,34.427-64.745,46.002-75.901,49.475c7.274,5.679,17.983,6.172,25.903-0.19l151.58-121.793
						c5.105-4.101,4.419-11.553-0.338-14.976C1863.905,3109.202,1829.091,3141.035,1778.829,3181.421z"/>
					
						<linearGradient id="SVGID_00000034808219927593790900000014418504762463877523_" gradientUnits="userSpaceOnUse" x1="1803.7061" y1="3091.4348" x2="1654.1305" y2="3420.5005">
						<stop  offset="0" style="stop-color:#CB236D"/>
						<stop  offset="1" style="stop-color:#4C246D"/>
					</linearGradient>
					<path style="fill:url(#SVGID_00000034808219927593790900000014418504762463877523_);" d="M1880.072,3093.936
						c-0.959-0.69-2.023-1.273-3.305-1.571c-23.335-5.394-65.043-9.799-96.24,15.994c-45.702,37.787-57.807,55.726-98.031,79.229
						l13.987,34.762c1.426,3.542,3.697,6.401,6.443,8.545c11.157-3.473,33.055-15.048,75.901-49.475
						C1829.091,3141.035,1863.905,3109.202,1880.072,3093.936z"/>
				</g>
				
					<linearGradient id="SVGID_00000058550160940556569570000015499089829343328399_" gradientUnits="userSpaceOnUse" x1="1756.0582" y1="2516.9011" x2="1473.5272" y2="2716.3347">
					<stop  offset="0" style="stop-color:#53D8FF"/>
					<stop  offset="1" style="stop-color:#3840F7"/>
				</linearGradient>
				<path style="fill:url(#SVGID_00000058550160940556569570000015499089829343328399_);" d="M1090.381,2598.351
					c0,0,329.075,26.869,396.582,58.649c67.507,31.779-55.09,477.178-55.09,477.178s-18.378,8.845-59.271-3.867
					c0,0,41.934-328.687,10.73-399.96l-356.303-58.278L1090.381,2598.351z"/>
				
					<linearGradient id="SVGID_00000004508447643827586800000009360393862715723936_" gradientUnits="userSpaceOnUse" x1="11725.373" y1="7714.2119" x2="11671.8213" y2="7685.9751" gradientTransform="matrix(1 0 0 1 -1375.1613 0)">
					<stop  offset="0" style="stop-color:#F9B776"/>
					<stop  offset="1" style="stop-color:#F47960"/>
				</linearGradient>
				<path style="fill:url(#SVGID_00000004508447643827586800000009360393862715723936_);" d="M1649.801,3125.023
					c3.055,2.784,32.696,62.565,32.696,62.565s32.999-7.139,39.728-28.022l-29.692-53.956L1649.801,3125.023z"/>
				
					<linearGradient id="SVGID_00000156588900525069011610000003353294316567222972_" gradientUnits="userSpaceOnUse" x1="1966.6373" y1="2371.1235" x2="879.6159" y2="3158.9648">
					<stop  offset="0" style="stop-color:#53D8FF"/>
					<stop  offset="1" style="stop-color:#3840F7"/>
				</linearGradient>
				<path style="fill:url(#SVGID_00000156588900525069011610000003353294316567222972_);" d="M892.182,2595.601
					c0,0-10.724,25.803-10.286,60.094c0.605,47.422,40.946,108.715,88.313,111.079l386.805-5.071
					c8.216,0.375,15.167,6.06,17.225,14.023c9.141,35.359,53.825,143.944,272.246,360.615c5.811,5.765,14.863,6.746,21.784,2.374
					l31.093-19.64c3.264-2.062,4.306-6.341,2.355-9.672l-226.508-386.796c-11.897-19.633-31.021-33.816-53.262-39.501
					l-331.565-84.755L892.182,2595.601z"/>
				
					<linearGradient id="SVGID_00000111870284692732043540000015205137599914403241_" gradientUnits="userSpaceOnUse" x1="2560.6553" y1="2118.0671" x2="2088.1221" y2="2909.5613" gradientTransform="matrix(1 0 0 1 -1375.1613 0)">
					<stop  offset="0" style="stop-color:#FDF53F"/>
					<stop  offset="1" style="stop-color:#D93C65"/>
				</linearGradient>
				<path style="fill:url(#SVGID_00000111870284692732043540000015205137599914403241_);" d="M891.132,2594.46
					c0,0-3.857-192.814,34.688-374.272c14.234-67.007,51.277-126.999,105.086-169.394l18.001-14.183l90.157,36.626l46.332,80.057
					c25.507,51.012,19.243,161.799,0,215.488c-32.174,89.772-57.905,182.8-68.871,228.495
					C1116.525,2597.277,967.202,2616.999,891.132,2594.46z"/>
				
					<linearGradient id="SVGID_00000035491723956522623680000012603539158948263303_" gradientUnits="userSpaceOnUse" x1="2415.6162" y1="1992.4019" x2="2545.217" y2="1992.4019" gradientTransform="matrix(1 0 0 1 -1375.1613 0)">
					<stop  offset="0" style="stop-color:#F9B776"/>
					<stop  offset="1" style="stop-color:#F47960"/>
				</linearGradient>
				<path style="fill:url(#SVGID_00000035491723956522623680000012603539158948263303_);" d="M1110.89,1892.924l-70.435,163.41
					c0,0,22.539,50.714,101.426,30.992l28.174-112.697L1110.89,1892.924z"/>
				<g>
					
						<linearGradient id="SVGID_00000140011370289732083580000006219025071574610072_" gradientUnits="userSpaceOnUse" x1="1688.0472" y1="3962.0559" x2="1503.3354" y2="4206.4146" gradientTransform="matrix(0.9372 -0.3487 0.3487 0.9372 -1746.7306 -1292.5793)">
						<stop  offset="0" style="stop-color:#F9B776"/>
						<stop  offset="1" style="stop-color:#F47960"/>
					</linearGradient>
					<path style="fill:url(#SVGID_00000140011370289732083580000006219025071574610072_);" d="M1250.475,1818.397
						c0.849,2.283,2.716,163.276,2.716,163.276l-91.948-0.889l-24.438-152.325
						C1136.805,1828.459,1236.259,1780.188,1250.475,1818.397z"/>
					
						<linearGradient id="SVGID_00000070822461221560642350000003533280103193890200_" gradientUnits="userSpaceOnUse" x1="1546.98" y1="4021.001" x2="1767.6211" y2="4021.001" gradientTransform="matrix(0.9372 -0.3487 0.3487 0.9372 -1746.7306 -1292.5793)">
						<stop  offset="0" style="stop-color:#2B3582"/>
						<stop  offset="1" style="stop-color:#150E42"/>
					</linearGradient>
					<path style="fill:url(#SVGID_00000070822461221560642350000003533280103193890200_);" d="M1163.774,1857.749l6.586,81.195
						c0.084,1.042,0.301,2.041,0.665,3.021c2.221,5.996,11.377,26.063,31.337,15.445c18.111-9.637,34.785-18.16,47.811-17.064
						c5.849,0.492,10.361,5.333,10.427,11.203c0.165,14.627-0.07,47.596-4.646,76.207c-0.928,5.807-6.185,9.886-12.05,9.471
						c-17.673-1.253-54.872-4.938-84.104-14.914c-3.961-1.352-6.873-4.712-7.584-8.837c-3.466-20.108-14.229-81.181-19.861-97.736
						c-5.286-15.539-26.908-20.858-36.146-22.444c-3.029-0.52-5.687-2.242-7.403-4.792c-6.067-9.01-16.425-30.656,10.311-46.223
						c5.595-3.258,7.365-10.432,3.938-15.926c-6.822-10.937-12.53-28.644,7.561-43.422c20.421-15.022,39.913-6.618,51.15,1.207
						c4.543,3.164,10.59,2.488,14.539-1.39c2.249-2.209,5.487-3.474,10.087-1.825c6.198,2.222,12.929-1.661,14.497-8.055
						c3.013-12.285,11.474-26.576,34.431-27.57c40.735-1.764,54.594,40.802,49.745,68.551
						c-4.849,27.748-49.121,27.149-73.058,18.863c-18.199-6.3-36.849,8.458-44.745,15.895
						C1164.761,1850.961,1163.496,1854.325,1163.774,1857.749z"/>
					
						<linearGradient id="SVGID_00000014599167611987615600000014097209734171234972_" gradientUnits="userSpaceOnUse" x1="1417.5176" y1="4155.5679" x2="1565.6705" y2="4003.5669" gradientTransform="matrix(0.9372 -0.3487 0.3487 0.9372 -1746.7306 -1292.5793)">
						<stop  offset="0" style="stop-color:#F9B776"/>
						<stop  offset="1" style="stop-color:#F47960"/>
					</linearGradient>
					<path style="fill:url(#SVGID_00000014599167611987615600000014097209734171234972_);" d="M1135.048,1945.277
						c0,0,6.373-48.711-12.612-56.199c-18.985-7.488-42.314,3.573-29.823,35.162
						C1108.151,1963.534,1135.048,1945.277,1135.048,1945.277z"/>
				</g>
				
					<linearGradient id="SVGID_00000088133493161249277960000002876282191913754245_" gradientUnits="userSpaceOnUse" x1="1924.6393" y1="1914.3158" x2="1452.1307" y2="2705.7686" gradientTransform="matrix(0.9551 0.2964 -0.2964 0.9551 4.1848 -175.8474)">
					<stop  offset="0" style="stop-color:#FDF53F"/>
					<stop  offset="1" style="stop-color:#D93C65"/>
				</linearGradient>
				<path style="fill:url(#SVGID_00000088133493161249277960000002876282191913754245_);" d="M1327.904,2439.596
					c-232.199,72.893-219.846-253.923-221.35-256.222c-92.049-140.662-143.737,46.788-134.817,73.213
					c81.644,295.584,287.462,280.949,367.659,222.887C1329.411,2463.938,1327.133,2450.265,1327.904,2439.596z"/>
				
					<linearGradient id="SVGID_00000094619994887420368000000011604191135160503962_" gradientUnits="userSpaceOnUse" x1="1489.9919" y1="1621.0569" x2="748.7703" y2="2997.6086">
					<stop  offset="0" style="stop-color:#FDF53F"/>
					<stop  offset="1" style="stop-color:#D93C65"/>
				</linearGradient>
				<path style="fill:url(#SVGID_00000094619994887420368000000011604191135160503962_);" d="M1149.906,2389.182
					c-1.282-0.398-2.436-1.233-3.218-2.45c-35.182-54.824-45.109-131.007-47.244-185.262c-0.128-3.259,2.411-6.006,5.671-6.134
					c3.261-0.129,6.007,2.408,6.134,5.67c1.7,43.217,9.855,123.985,45.383,179.346c1.761,2.745,0.964,6.398-1.782,8.162
					C1153.323,2389.494,1151.515,2389.681,1149.906,2389.182z"/>
				
					<linearGradient id="SVGID_00000126283626247740214940000014233335343126960023_" gradientUnits="userSpaceOnUse" x1="1435.8912" y1="1598.5743" x2="694.6737" y2="2975.1189">
					<stop  offset="0" style="stop-color:#FDF53F"/>
					<stop  offset="1" style="stop-color:#D93C65"/>
				</linearGradient>
				<path style="fill:url(#SVGID_00000126283626247740214940000014233335343126960023_);" d="M1085.064,2463.449
					c-0.727-0.225-1.421-0.595-2.041-1.115c-53.067-44.47-93.05-114.351-118.835-207.701c-0.868-3.145,0.977-6.399,4.121-7.268
					c3.146-0.865,6.398,0.979,7.267,4.122c25.135,90.997,63.839,158.889,115.036,201.791c2.5,2.096,2.828,5.822,0.733,8.323
					C1089.77,2463.483,1087.27,2464.134,1085.064,2463.449z"/>
				
					<linearGradient id="SVGID_00000108278905711056603630000000767091531266181011_" gradientUnits="userSpaceOnUse" x1="2119.3315" y1="2042.2908" x2="1927.5474" y2="2353.4873" gradientTransform="matrix(0.9551 0.2964 -0.2964 0.9551 4.1848 -175.8474)">
					<stop  offset="0" style="stop-color:#F9B776"/>
					<stop  offset="1" style="stop-color:#F47960"/>
				</linearGradient>
				<path style="fill:url(#SVGID_00000108278905711056603630000000767091531266181011_);" d="M1464.589,2371.357
					c0,0-3.77,6.022-30.956,27.085c-27.186,21.063-54.558,33.22-33.774,4.27c20.783-28.95,10.669-43.888-13.048-12.704
					c-23.717,31.186-40.674,43.232-40.674,43.232c-6.242,2.39-12.313,4.497-18.233,6.355c-0.771,10.67,1.507,24.342,11.493,39.878
					c9.406-3.11,14.721-5.407,14.721-5.407s71.91-13.084,87.311-43.705C1456.83,2399.741,1464.589,2371.357,1464.589,2371.357z"/>
			</g>
			
				<linearGradient id="SVGID_00000121237874166043080690000014430038751095640218_" gradientUnits="userSpaceOnUse" x1="1041.7111" y1="2618.1475" x2="419.8519" y2="3445.5376">
				<stop  offset="0" style="stop-color:#CB236D"/>
				<stop  offset="1" style="stop-color:#4C246D"/>
			</linearGradient>
			<path style="fill:url(#SVGID_00000121237874166043080690000014430038751095640218_);" d="M602.551,2501.303
				c0.303-2.058,67.603,129.388,218.601,107.484c150.999-21.905,273.311,15.943,335.108,139.527
				c61.797,123.583,72.762,239.412,120.972,257.633c0,0-452.094,10.235-533.74,1.594
				C661.845,2998.898,539.961,2926.59,602.551,2501.303z"/>
			<path style="fill:#FFFFFF;" d="M1127.029,2777.823c-0.526,0-1.029-0.298-1.266-0.805
				c-20.702-44.397-67.682-101.889-173.923-123.656c-63.701-13.051-119.237-6.923-119.787-6.861
				c-0.785,0.09-1.458-0.462-1.545-1.227c-0.089-0.766,0.461-1.458,1.226-1.545c0.559-0.063,56.474-6.24,120.591,6.884
				c59.296,12.135,137.958,43.712,175.967,125.224c0.326,0.699,0.023,1.529-0.674,1.854
				C1127.427,2777.781,1127.226,2777.823,1127.029,2777.823z"/>
		</g>
	</g>
</g>
</svg>
